<svg width="64" height="64" viewBox="0 0 64 64" fill="none" xmlns="http://www.w3.org/2000/svg">
<rect width="64" height="64" rx="4" fill="#7936EC"/>
<path d="M25.3096 43.535C25.3096 43.0958 25.0307 42.803 24.6123 42.803H12.4786C12.0602 42.803 11.7812 43.0958 11.7812 43.535C11.7812 43.9741 12.0602 44.2669 12.4786 44.2669H24.6123C25.0307 44.2669 25.3096 43.9009 25.3096 43.535Z" fill="white"/>
<path d="M15.2678 46.4629H13.8731C13.4547 46.4629 13.1758 46.7557 13.1758 47.1949C13.1758 47.634 13.4547 47.9268 13.8731 47.9268H15.2678C15.6862 47.9268 15.9651 47.634 15.9651 47.1949C15.9651 46.7557 15.6862 46.4629 15.2678 46.4629Z" fill="white"/>
<path d="M18.5456 39.875C18.5456 39.4359 18.2666 39.1431 17.8482 39.1431H11.0841C10.6657 39.1431 10.3867 39.4359 10.3867 39.875C10.3867 40.3142 10.6657 40.607 11.0841 40.607H17.8482C18.2666 40.607 18.5456 40.241 18.5456 39.875Z" fill="white"/>
<path d="M53.2034 41.1194C52.9942 40.6802 52.5758 40.3143 52.1574 40.0947L46.8576 37.9719L44.6959 37.1668C44.0683 36.874 43.5104 36.4348 43.1617 35.8492L41.3486 32.7017C41.6973 32.6285 41.9065 32.3357 41.9065 31.9697C41.9065 31.5306 41.6276 31.2378 41.2092 31.2378H40.5118L39.675 29.7738C40.0237 29.7006 40.2329 29.4078 40.2329 29.0418C40.2329 28.6027 39.954 28.3099 39.5356 28.3099H38.8382L38.1409 27.1387C38.4198 27.0655 38.629 26.7727 38.629 26.4799C38.629 26.0407 38.3501 25.748 37.9317 25.748H37.3041L36.3976 24.2108C36.3976 24.2108 36.3976 24.1376 36.3278 24.1376C35.491 23.1128 34.3753 22.6005 33.1898 22.7469C32.1438 22.8932 31.307 23.552 30.9583 24.3572C30.8886 24.5768 30.8886 24.7964 31.0281 25.016L36.816 35.41C36.8857 35.5564 37.0252 35.7028 37.1646 35.7028L44.2775 38.5575H44.3472L46.4392 39.3627L51.6692 41.4854C51.8087 41.5586 51.9482 41.6318 52.0179 41.8514C52.2968 42.437 52.2968 43.0226 51.9482 43.6081H40.5816C39.8842 43.6081 39.1869 43.3886 38.629 42.9494L19.1733 27.7975C19.1733 27.7975 19.4523 27.6511 19.8009 27.1387C20.1496 26.6263 20.2891 25.9675 20.2891 25.3088L19.6615 19.1602L20.4983 17.7694C20.7075 17.4766 21.1259 17.4034 21.4048 17.623C21.614 17.8426 22.4508 18.5746 24.4731 22.0149C25.5191 23.6252 27.1927 24.7964 29.0755 25.0892C29.4242 25.1624 29.8426 24.8696 29.9123 24.5036C29.982 24.1376 29.7031 23.6984 29.3544 23.6252C27.89 23.3324 26.4954 22.4541 25.6586 21.1365C23.2179 17.1838 22.5205 16.5983 22.2416 16.3787C21.3351 15.7199 20.0799 15.9395 19.3825 16.8911L15.1288 23.9912C14.8498 24.4304 14.7801 24.9428 14.8498 25.4552C14.4314 25.6016 14.013 25.8211 13.8038 26.2603L12.6881 28.0903C12.0605 29.0418 12.3394 30.3594 13.246 31.0182C13.8736 31.5306 15.1985 32.4089 17.151 33.7265C17.2905 33.7997 17.43 33.8729 17.4997 33.8729C17.7089 33.8729 17.9181 33.7265 18.0576 33.5069C18.2668 33.1409 18.1971 32.7017 17.8484 32.4821C15.9656 31.1646 14.6406 30.2862 14.013 29.7738C13.7341 29.5542 13.6644 29.1882 13.8736 28.8222L14.9196 27.1387C15.1288 26.8459 15.5472 26.7727 15.8261 26.9923L37.7225 44.1205C38.5593 44.7793 39.5356 45.0721 40.5118 45.0721H50.1351C48.6707 45.8041 46.6484 46.4629 44.9051 46.4629H42.4644H40.4421C39.2566 46.4629 38.0712 46.0969 37.0949 45.4381C33.0503 42.7298 25.5191 37.6791 20.0101 33.9461C19.6615 33.7265 19.2431 33.7997 19.0339 34.1657C18.8247 34.5317 18.8944 34.9708 19.2431 35.1904C24.6126 38.8503 31.9346 43.7545 36.0489 46.5361H18.0576C17.6392 46.5361 17.3602 46.8288 17.3602 47.268C17.3602 47.7072 17.6392 48 18.0576 48H40.4421H42.4644H44.8353C47.6944 48 51.8087 46.3897 52.8547 44.8525C53.7612 43.535 53.831 42.2906 53.2034 41.1194ZM37.7922 34.5317L32.353 24.7964C32.5622 24.5768 32.9109 24.3572 33.3293 24.284C33.7477 24.2108 34.5147 24.284 35.2121 25.0892L35.6305 25.8211H35.0029C34.5845 25.8211 34.3055 26.1139 34.3055 26.5531C34.3055 26.9923 34.5845 27.2851 35.0029 27.2851H36.4673L37.1646 28.4563H36.6068C36.1884 28.4563 35.9094 28.7491 35.9094 29.1882C35.9094 29.6274 36.1884 29.9202 36.6068 29.9202H38.0014L38.8382 31.311H38.2804C37.862 31.311 37.583 31.6038 37.583 32.0429C37.583 32.4821 37.862 32.7749 38.2804 32.7749H39.675L41.6276 35.9956L37.7922 34.5317ZM16.3142 24.7964L18.476 21.2097L18.8944 25.4552C18.8944 25.748 18.8247 26.0407 18.6852 26.2603C18.5457 26.4799 18.2668 27.0655 17.6392 26.5531C17.6392 26.5531 17.2905 26.3335 16.6629 25.8211C16.2445 25.4552 16.1748 25.0892 16.3142 24.7964Z" fill="white"/>
</svg>
